<svg id="Camada_2" data-name="Camada 2" xmlns="http://www.w3.org/2000/svg" viewBox="0 0 644.18 623.61"><defs><style>.cls-1{fill:none;stroke:#fff;stroke-miterlimit:10;stroke-width:23px;}</style></defs><path class="cls-1" d="M397.65,158.29c-1.19-3.68-2.82-7.57-4.52-7.48-2.11.11-3.16,6.26-5.84,20.13-2.28,11.82-4.82,23.59-7,35.42-2.1,11.18-3.15,16.77-3.77,19.8-4.84,23.84-7.91,38.37-7.91,38.37-1.52,7-2.6,11.91-2.8,19.05a81.14,81.14,0,0,0,1.11,15.66,174.09,174.09,0,0,0,7.25,22.86C380,336.93,386.3,346.92,394.64,360c9.27,14.5,15.42,24,26.23,34.9a152.69,152.69,0,0,0,19,16.25c-10.3,3.13-22.64,7.23-36.42,12.59-24.55,9.54-29,13.47-29.16,17.42-.19,5.15,7,9.58,12,12.13l49.31,33.61a318.73,318.73,0,0,0,36.56-6.06,316.42,316.42,0,0,0,40.26-12q-1.54,41.13-3.1,82.25l63.49,90.2q-1.34,23.81-2.65,47.61l53.68,57.29a250.4,250.4,0,0,0,104.77-.58L782,687.83l-1-46.44L844,553l-2.79-83.32a293.23,293.23,0,0,0,73.63,16c7.89-3.73,16.27-8.14,25-13.36a284.34,284.34,0,0,0,36.58-26.13c1.55-1.06,3.43-2.73,3.49-4.84.14-5.11-10.61-9.34-31.74-16.84-9.58-3.4-22-7.71-36.58-12.58a210.26,210.26,0,0,0,55.16-64.43,207.37,207.37,0,0,0,18.77-47,85.74,85.74,0,0,0,1.4-12.34,88.17,88.17,0,0,0-1.72-21.15c-4.37-22.76-7.85-45.67-12.39-68.39-7-35.27-8.35-46.37-12.64-46.71s-8.74,10.42-11.87,19.87q-10.07,28.1-20.91,56.77-17,45-34.58,87.75a337.06,337.06,0,0,1-33.68,15.16,336.84,336.84,0,0,1-37.54,12q-25.15-6.15-50.33-12.2-26.57-6.37-53.16-12.64l-83.61-.9-103,25.67c-12.93-3.69-26.69-8.17-41.07-13.64-10-3.81-19.47-7.77-28.35-11.78Z" transform="translate(-354.25 -139.3)"/></svg>